# xmcd CD database file
#
# Track frame offsets:
#	150
#	15491
#	32332
#	45924
#	60927
#	76539
#	91465
#	106701
#	118561
#	145552
#	170804
#	193975
#	214649
#	253528
#
# Disc length: 3894 seconds
#
# Revision: 1
# Processed by: cddbd v1.5.2PL0 Copyright (c) Steve Scherf et al.
# Submitted via: CDex 1.70beta2
#
DISCID=a10f340e
DTITLE=Lou Donaldson  - The Ultimate Jazz Archive Set 31
DYEAR=2005
DGENRE=Jazz
TTITLE0=Roccus
TTITLE1=Lou's Blues
TTITLE2=Cheek To Cheek
TTITLE3=The Things We Did Last Summer
TTITLE4=Sweet Juice
TTITLE5=Down Home
TTITLE6=The Best Things In Life Are Free
TTITLE7=If I Love Again
TTITLE8=Caracas
TTITLE9=The Stroller
TTITLE10=Moe's Bluff
TTITLE11=After You've Gone
TTITLE12=Blues
TTITLE13=Split Kick
EXTD=YEAR: 2005
EXTT0=
EXTT1=
EXTT2=
EXTT3=
EXTT4=
EXTT5=
EXTT6=
EXTT7=
EXTT8=
EXTT9=
EXTT10=
EXTT11=
EXTT12=
EXTT13=
PLAYORDER=
